<svg width="100" height="100" xmlns="http://www.w3.org/2000/svg">
  <!-- Fundo da bola -->
  <circle cx="50" cy="50" r="45" fill="white" stroke="grey" stroke-width="1"/>
  
  <!-- Polígonos pretos da bola -->
  <polygon points="50,5 20,20 35,50 65,50 80,20" fill="black"/>
  <polygon points="50,95 20,80 35,50 65,50 80,80" fill="black"/>
  <polygon points="5,50 20,20 20,80" fill="black"/>
  <polygon points="95,50 80,20 80,80" fill="black"/>
  
  <!-- Costuras da bola -->
  <path d="M 35,50 C 40,40 60,40 65,50" stroke="grey" stroke-width="1" fill="none"/>
  <path d="M 35,50 C 40,60 60,60 65,50" stroke="grey" stroke-width="1" fill="none"/>
  <path d="M 20,20 C 30,25 70,25 80,20" stroke="grey" stroke-width="1" fill="none"/>
  <path d="M 20,80 C 30,75 70,75 80,80" stroke="grey" stroke-width="1" fill="none"/>
  
  <!-- Brilho -->
  <circle cx="30" cy="30" r="10" fill="white" opacity="0.5"/>
</svg>